<svg width="512" height="512" viewBox="0 0 512 512" fill="none" xmlns="http://www.w3.org/2000/svg">
<path fill-rule="evenodd" clip-rule="evenodd" d="M24 256.5V339H111.067H198.134L156.75 297.761L115.364 256.521L156.739 215.261L198.113 174H111.055H24V256.5ZM224.465 175.422C224.933 176.204 245.6 212.69 270.392 256.5C295.181 300.31 316.071 336.777 316.809 337.536C317.55 338.294 327.551 321.891 339.037 301.082C350.523 280.273 360.348 263.237 360.871 263.221C361.394 263.208 371.154 279.852 382.56 300.208C393.964 320.566 403.815 337.542 404.449 337.93C405.538 338.602 496 177.827 496 175.223C496 174.55 434.712 174 359.807 174C284.902 174 223.997 174.641 224.465 175.422ZM49.6935 196.759C42.4232 204.06 35.8076 210.034 34.9949 210.034C34.1823 210.034 33.5161 205.621 33.5161 200.227C33.5161 186.464 36.6945 183.483 51.3646 183.483H62.9134L49.6935 196.759ZM66.8016 215.76L34.4677 248.038L33.8873 237.231L33.3068 226.424L54.7904 204.954L76.2759 183.483H87.7067H99.1355L66.8016 215.76ZM86.8065 233.741C59.0822 261.384 35.7486 284 34.9569 284C34.1651 284 33.5161 279.526 33.5161 274.06V264.118L73.9425 223.802L114.371 183.483H125.792H137.215L86.8065 233.741ZM103.926 252.732L34.4677 321.98L33.8854 311.168L33.3049 300.354L91.9223 241.919L150.542 183.483H161.963H173.384L103.926 252.732ZM292.785 244.491L326.668 304.551L322.574 311.466C320.323 315.268 317.786 317.685 316.937 316.837C316.088 315.987 301.134 290.116 283.707 259.345C266.281 228.573 249.443 198.866 246.291 193.328L240.56 183.259L249.73 183.845L258.9 184.431L292.785 244.491ZM313.77 229.965C328.16 255.531 339.935 277.336 339.935 278.42C339.935 281.546 334.294 291.586 332.538 291.586C331.036 291.586 271.419 187.35 271.419 184.721C271.419 184.04 275.06 183.483 279.512 183.483H287.602L313.77 229.965ZM336.078 217.899L355.458 252.316L351.979 258.833C350.066 262.417 347.956 265.694 347.291 266.117C346.355 266.713 303.106 192.148 300.286 185.074C299.935 184.198 303.485 183.483 308.173 183.483H316.697L336.078 217.899ZM380.004 244.172L413.697 303.914L409.959 311.269C406.843 317.4 405.818 318.189 403.794 316.01C402.46 314.572 386.995 287.793 369.428 256.5C351.859 225.207 335.356 195.924 332.753 191.429L328.021 183.255L337.166 183.843L346.313 184.431L380.004 244.172ZM401.446 230.288C428.887 279.033 429.528 280.848 422.275 289.348C418.986 293.2 418.303 292.178 388.188 238.38L357.458 183.483L366.301 183.526L375.145 183.568L401.446 230.288ZM423.289 217.765L442.639 252.049L438.713 259.715C436.555 263.933 434.115 266.641 433.291 265.734C431.446 263.705 387.516 185.63 387.516 184.38C387.516 183.887 391.212 183.483 395.729 183.483H403.941L423.289 217.765ZM438.865 193.44C442.026 198.917 447.371 208.665 450.743 215.106C456.83 226.73 456.853 226.864 453.63 233.597C451.845 237.328 449.729 240.374 448.926 240.366C448.124 240.36 444.272 234.599 440.365 227.564C436.458 220.53 429.341 207.734 424.551 199.129L415.84 183.483H424.479C432.9 183.483 433.26 183.731 438.865 193.44ZM467.079 192.08L471.271 200.679L467.284 208.464L463.299 216.251L458.584 207.927C455.992 203.349 451.752 195.977 449.162 191.543L444.453 183.483H453.67C462.718 183.483 462.964 183.64 467.079 192.08ZM480.409 185.522C480.034 186.642 478.913 187.56 477.919 187.56C476.926 187.56 475.805 186.642 475.43 185.522C475.055 184.401 476.174 183.483 477.919 183.483C479.665 183.483 480.784 184.401 480.409 185.522ZM113.872 270.178L119.258 275.319L92.1146 302.419L64.9688 329.517H53.5457H42.1225L74.4355 297.276C92.2078 279.543 107.139 265.034 107.616 265.034C108.094 265.034 110.909 267.348 113.872 270.178ZM132.535 288.796L137.057 293.593L119.106 311.555L101.157 329.517H89.7279H78.3009L101.081 306.759C113.61 294.241 124.795 284 125.937 284C127.079 284 130.048 286.158 132.535 288.796ZM147.731 320.962C139.591 329.227 138.915 329.517 127.853 329.517H116.402L130.586 315.287L144.771 301.058L150.464 306.732L156.158 312.405L147.731 320.962ZM168.645 324.776L173.116 329.517H162.935H152.755L157.226 324.776C159.685 322.168 162.254 320.034 162.935 320.034C163.617 320.034 166.186 322.168 168.645 324.776Z" fill="#123942"/>
</svg>
