<svg width="836" height="293" viewBox="0 0 836 293" fill="none" xmlns="http://www.w3.org/2000/svg">
<path fill-rule="evenodd" clip-rule="evenodd" d="M0 293H308.423L161.823 146.537L308.386 0H0V293ZM355.061 2.52586C355.89 3.9134 392.495 68.7034 436.405 146.5C480.312 224.297 517.312 289.053 518.62 290.4C519.931 291.747 537.646 262.619 557.99 225.667C578.333 188.716 595.734 158.462 596.661 158.436C597.588 158.412 614.875 187.968 635.077 224.115C655.276 260.265 672.724 290.41 673.846 291.101C675.775 292.293 836 6.79624 836 2.17223C836 0.976655 727.448 0 594.777 0C462.106 0 354.231 1.13832 355.061 2.52586ZM45.5081 40.4138C32.631 53.3799 20.9135 63.9885 19.4741 63.9885C18.0347 63.9885 16.8548 56.1516 16.8548 46.5735C16.8548 22.1333 22.4843 16.8391 48.4678 16.8391H68.9228L45.5081 40.4138ZM18.5403 131.473L16.484 93.0932L92.5904 16.8391H133.079L18.5403 131.473ZM111.242 106.086C62.137 155.172 20.809 195.333 19.4067 195.333C18.0043 195.333 16.8548 187.389 16.8548 177.683V160.029L160.064 16.8391H200.525L111.242 106.086ZM18.5403 262.777L16.4807 224.374L224.129 16.8391H264.587L18.5403 262.777ZM536.082 231.827L528.831 244.106C524.843 250.859 520.349 255.149 518.846 253.644C517.342 252.135 490.857 206.195 459.989 151.552C429.124 96.9089 399.301 44.1554 393.719 34.3214L383.569 16.4349H416.052L536.082 231.827ZM513.237 99.3809C538.724 144.779 559.581 183.499 559.581 185.425C559.581 190.975 549.589 208.805 546.478 208.805C543.818 208.805 437.5 16.4349 437.5 16.4349H452.559H466.889L513.237 99.3809ZM587.074 139.071L580.912 150.642C577.524 157.008 573.786 162.827 572.609 163.578C570.951 164.636 489.353 16.4349 489.353 16.4349C489.353 16.4349 495.02 16.4349 503.323 16.4349H518.421L587.074 139.071ZM690.226 230.695L683.605 243.756C678.087 254.644 676.27 256.045 672.687 252.175C670.324 249.623 642.931 202.069 611.817 146.5C580.7 90.931 551.47 38.932 546.859 30.9502L538.478 16.4349H570.877L690.226 230.695ZM668.527 99.9534C717.13 186.513 718.266 189.736 705.419 204.831C699.594 211.671 698.384 209.855 645.045 114.324L590.617 16.4349H621.944L668.527 99.9534ZM741.488 138.596L734.534 152.208C730.711 159.698 726.39 164.508 724.93 162.898C721.663 159.294 643.855 16.4349 643.855 16.4349C643.855 16.4349 651.501 16.4349 659.5 16.4349H672.946L741.488 138.596ZM734.804 34.5201C740.403 44.2464 749.868 61.557 755.842 72.9941C766.622 93.6354 766.663 93.8745 760.956 105.83C757.794 112.455 754.045 117.863 752.622 117.85C751.203 117.84 744.38 107.608 737.46 95.1172C730.539 82.626 717.935 59.9033 709.451 44.6236L694.022 16.4349H709.322C724.239 16.4349 724.876 17.2803 734.804 34.5201ZM784.775 32.1054L792.201 47.3751L778.08 75.0282L769.73 60.2469C765.139 52.117 757.628 39.0263 753.041 31.1523L744.701 16.4349H761.026C777.052 16.4349 777.487 17.1186 784.775 32.1054ZM808.385 20.4595C807.721 22.4499 805.735 24.0799 803.976 24.0799C802.216 24.0799 800.231 22.4499 799.567 20.4595C798.902 18.4691 800.885 16.4349 803.976 16.4349C807.067 16.4349 809.049 18.4691 808.385 20.4595ZM159.18 170.789L168.72 179.919L72.5635 276.161H32.0984L89.3306 218.908C120.809 187.419 147.254 161.655 148.1 161.655C148.946 161.655 153.932 165.764 159.18 170.789ZM192.236 203.851L200.246 212.368L136.659 276.161H96.1771L136.524 235.747C158.715 213.52 178.526 195.333 180.549 195.333C182.572 195.333 187.83 199.166 192.236 203.851ZM219.15 260.969C204.732 275.646 203.536 276.161 183.944 276.161H163.66L213.908 225.623L234.077 245.773L219.15 260.969ZM256.194 267.741L264.112 276.161H228.049L235.968 267.741C240.323 263.111 244.874 259.322 246.081 259.322C247.287 259.322 251.838 263.111 256.194 267.741Z" fill="#123942"/>
</svg>
